Coordinates
version=1
nRows=21
nColumns=12
inDegrees=yes

Units are S.I. units (second, meters, Newtons, ...)
Angles are in degrees

endheader
time	SC_y	SC_z	SC_x	AC_y	AC_z	AC_x	GH_y	GH_z	GH_yy	EL_x	PS_y
       0.0              -34.49         -4.533          69.21          59.75       -0.06492         -3.194        -0.1914         -10.84         -102.7          43.42          151.8
  0.001651              -34.49         -4.529           69.2          59.75       -0.06446         -3.193        -0.1692         -10.84         -102.7          43.43          151.8
  0.003303              -34.49         -4.525           69.2          59.75       -0.06397         -3.191        -0.1456         -10.84         -102.6          43.44          151.8
  0.004954              -34.49         -4.522           69.2          59.75       -0.06345          -3.19        -0.1205         -10.84         -102.6          43.45          151.8
  0.006606              -34.49         -4.517          69.19          59.75        -0.0629         -3.189       -0.09375         -10.84         -102.6          43.47          151.8
  0.008257              -34.49         -4.513          69.19          59.74       -0.06231         -3.187       -0.06525         -10.84         -102.6          43.48          151.8
  0.009909              -34.49         -4.508          69.18          59.74       -0.06168         -3.185       -0.03482         -10.84         -102.6           43.5          151.8
   0.01156              -34.49         -4.503          69.18          59.74         -0.061         -3.184      -0.002282         -10.84         -102.5          43.52          151.8
   0.01321              -34.49         -4.498          69.17          59.74       -0.06028         -3.182        0.03256         -10.84         -102.5          43.53          151.8
   0.01486              -34.49         -4.492          69.17          59.73       -0.05951          -3.18        0.06993         -10.84         -102.5          43.55          151.8
   0.01651               -34.5         -4.485          69.16          59.73       -0.05868         -3.178         0.1101         -10.84         -102.4          43.57          151.7
   0.01817               -34.5         -4.479          69.15          59.73       -0.05778         -3.176         0.1533         -10.84         -102.4           43.6          151.7
   0.01982               -34.5         -4.471          69.15          59.72       -0.05682         -3.173         0.1998         -10.84         -102.4          43.62          151.7
   0.02147               -34.5         -4.464          69.14          59.72       -0.05577          -3.17         0.2501         -10.84         -102.3          43.64          151.7
   0.02312               -34.5         -4.455          69.13          59.72       -0.05465         -3.168         0.3046         -10.84         -102.3          43.67          151.7
   0.02477               -34.5         -4.446          69.12          59.71       -0.05342         -3.164         0.3636         -10.85         -102.2           43.7          151.7
   0.02642               -34.5         -4.436          69.11          59.71        -0.0521         -3.161         0.4278         -10.85         -102.2          43.74          151.6
   0.02808               -34.5         -4.425           69.1           59.7       -0.05065         -3.157         0.4977         -10.85         -102.1          43.77          151.6
   0.02973               -34.5         -4.413          69.09           59.7       -0.04907         -3.153          0.574         -10.85         -102.1          43.81          151.6
   0.03138               -34.5           -4.4          69.08          59.69       -0.04733         -3.149         0.6576         -10.85         -102.0          43.85          151.6
   0.03303               -34.5         -4.385          69.06          59.68       -0.04543         -3.144         0.7493         -10.85         -101.9           43.9          151.6
